<svg width="24" height="25" viewBox="0 0 24 25" fill="none" xmlns="http://www.w3.org/2000/svg">
<path d="M13 16.3612C13 16.9134 12.5522 17.3612 12 17.3612C11.4478 17.3612 11 16.9134 11 16.3612V11.4403C11 11.4403 11 10.4099 12 10.4099C12.8345 10.4099 13 11.2942 13 11.4403V16.3612Z" fill="black"/>
<path d="M13 8.4099C13 8.96214 12.5522 9.4099 12 9.4099C11.4478 9.4099 11 8.96214 11 8.4099C11 7.85765 11.4478 7.4099 12 7.4099C12.5522 7.4099 13 7.85765 13 8.4099Z" fill="black"/>
<path fill-rule="evenodd" clip-rule="evenodd" d="M2 12.4099C2 17.9327 6.47705 22.4099 12 22.4099C17.5229 22.4099 22 17.9327 22 12.4099C22 6.88707 17.5229 2.4099 12 2.4099C6.47705 2.4099 2 6.88707 2 12.4099ZM20 12.4099C20 16.8282 16.4182 20.4099 12 20.4099C7.58179 20.4099 4 16.8282 4 12.4099C4 7.99156 7.58179 4.4099 12 4.4099C16.4182 4.4099 20 7.99156 20 12.4099Z" fill="black"/>
</svg>
