<svg width="20" height="21" viewBox="0 0 20 21" fill="none" xmlns="http://www.w3.org/2000/svg">
<path d="M11 14.3612C11 14.9135 10.5522 15.3612 10 15.3612C9.44775 15.3612 9 14.9135 9 14.3612V9.44031C9 9.44031 9 8.40991 10 8.40991C10.8345 8.40991 11 9.29419 11 9.44031V14.3612Z" fill="#FF2D55"/>
<path d="M11 6.40991C11 6.96216 10.5522 7.40991 10 7.40991C9.44775 7.40991 9 6.96216 9 6.40991C9 5.85767 9.44775 5.40991 10 5.40991C10.5522 5.40991 11 5.85767 11 6.40991Z" fill="#FF2D55"/>
<path fill-rule="evenodd" clip-rule="evenodd" d="M0 10.4099C0 15.9327 4.47705 20.4099 10 20.4099C15.5229 20.4099 20 15.9327 20 10.4099C20 4.88708 15.5229 0.409912 10 0.409912C4.47705 0.409912 0 4.88708 0 10.4099ZM18 10.4099C18 14.8282 14.4182 18.4099 10 18.4099C5.58179 18.4099 2 14.8282 2 10.4099C2 5.99158 5.58179 2.40991 10 2.40991C14.4182 2.40991 18 5.99158 18 10.4099Z" fill="#FF2D55"/>
<path d="M11 14.3612C11 14.9135 10.5522 15.3612 10 15.3612C9.44775 15.3612 9 14.9135 9 14.3612V9.44031C9 9.44031 9 8.40991 10 8.40991C10.8345 8.40991 11 9.29419 11 9.44031V14.3612Z" stroke="#FFEAEE"/>
<path d="M11 6.40991C11 6.96216 10.5522 7.40991 10 7.40991C9.44775 7.40991 9 6.96216 9 6.40991C9 5.85767 9.44775 5.40991 10 5.40991C10.5522 5.40991 11 5.85767 11 6.40991Z" stroke="#FFEAEE"/>
<path fill-rule="evenodd" clip-rule="evenodd" d="M0 10.4099C0 15.9327 4.47705 20.4099 10 20.4099C15.5229 20.4099 20 15.9327 20 10.4099C20 4.88708 15.5229 0.409912 10 0.409912C4.47705 0.409912 0 4.88708 0 10.4099ZM18 10.4099C18 14.8282 14.4182 18.4099 10 18.4099C5.58179 18.4099 2 14.8282 2 10.4099C2 5.99158 5.58179 2.40991 10 2.40991C14.4182 2.40991 18 5.99158 18 10.4099Z" stroke="#FFEAEE"/>
</svg>
