<svg width="20" height="20" viewBox="0 0 20 20" fill="none" xmlns="http://www.w3.org/2000/svg">
<path fill-rule="evenodd" clip-rule="evenodd" d="M11.6868 9.90763C10.4882 9.97671 9.7371 9.69751 8.53839 9.76674C8.24109 9.78344 7.94584 9.82653 7.65613 9.8955C7.83306 7.67874 9.40193 5.73957 11.5353 5.61631C12.8445 5.54076 14.1531 6.34908 14.224 7.66127C14.2939 8.95099 13.3105 9.81381 11.6869 9.90747L11.6868 9.90763ZM8.46823 14.4419C7.21403 14.5128 5.96065 13.7561 5.89258 12.5281C5.82564 11.3211 6.7679 10.5136 8.32323 10.4259C9.47129 10.3612 10.191 10.6226 11.339 10.5577C11.6237 10.5421 11.9065 10.5018 12.1842 10.4372C12.015 12.5118 10.5121 14.3268 8.46823 14.4419ZM10 0.000161758C4.4771 -2.09028e-09 0 4.47703 0 10C0 15.523 4.4771 20 10 20C15.5229 20 20 15.5228 20 10C20 4.47719 15.5229 0 10 0" fill="#4360DF"/>
</svg>
